<?xml version="1.0" encoding="UTF-8" standalone="no"?>
<!-- Created with Inkscape (http://www.inkscape.org/) -->

<svg
   version="1.1"
   id="svg1"
   width="110"
   height="84"
   viewBox="0 0 110 84"
   sodipodi:docname="MIKVID_LOG.svg"
   inkscape:version="1.4.2 (f4327f4, 2025-05-13)"
   xmlns:inkscape="http://www.inkscape.org/namespaces/inkscape"
   xmlns:sodipodi="http://sodipodi.sourceforge.net/DTD/sodipodi-0.dtd"
   xmlns="http://www.w3.org/2000/svg"
   xmlns:svg="http://www.w3.org/2000/svg">
  <defs
     id="defs1" />
  <sodipodi:namedview
     id="namedview1"
     pagecolor="#ffffff"
     bordercolor="#000000"
     borderopacity="0.25"
     inkscape:showpageshadow="2"
     inkscape:pageopacity="0.0"
     inkscape:pagecheckerboard="0"
     inkscape:deskcolor="#d1d1d1"
     inkscape:zoom="13.892857"
     inkscape:cx="54.992288"
     inkscape:cy="42"
     inkscape:window-width="3440"
     inkscape:window-height="1369"
     inkscape:window-x="2552"
     inkscape:window-y="146"
     inkscape:window-maximized="1"
     inkscape:current-layer="g1" />
  <g
     inkscape:groupmode="layer"
     inkscape:label="Image"
     id="g1">
    <path
       style="fill:#00aad4"
       d="M 92.30617,77.629427 C 89.462328,76.427254 85.305049,73.97263 83.067774,72.174706 79.344117,69.182293 79.001303,68.50791 79.015406,64.202877 79.028119,60.322101 80.171079,57.402302 85.553777,47.5 89.141407,40.9 93.704614,32.19501 95.694236,28.155578 97.752808,23.97616 99.514187,18.704156 99.781532,15.921842 100.1117,12.485743 99.778219,10.310465 98.659551,8.6031615 97.784071,7.26701 95.749137,5.8841749 94.137475,5.5301946 92.402024,5.1490255 89.79155,5.4780828 87.735412,6.3371918 c -1.909473,0.7978287 -4.624071,2.9613438 -6.03244,4.8078112 -1.40837,1.846468 -3.526127,5.606715 -4.706128,8.356105 -1.180001,2.749391 -3.880449,10.744697 -6.000997,17.767347 C 68.8753,44.291106 66.21979,51.526338 65.094714,53.34675 63.969638,55.167161 61.891895,57.183857 60.477507,57.828295 59.06312,58.472733 56.836594,59 55.529672,59 54.22275,59 51.819398,57.877469 50.18889,56.505487 48.280698,54.899849 45.74785,50.511956 43.080779,44.191433 40.801826,38.790685 37.810129,32.713216 36.432563,30.685946 35.054997,28.658676 33.113865,27 32.118937,27 c -0.994929,0 -2.528217,0.794768 -3.407307,1.766152 -0.87909,0.971383 -2.027218,3.783883 -2.551396,6.25 C 25.636057,37.482268 24.904565,46.025 24.534697,54 c -0.476391,10.27181 -1.111806,15.179429 -2.17907,16.83001 -0.82862,1.281505 -2.899295,2.915602 -4.6015,3.631325 -2.101856,0.883764 -4.083068,1.019697 -6.174523,0.423639 C 9.8858218,74.402252 7.8971343,73.218156 7.1602984,72.253649 6.183164,70.974595 5.9879599,68.609952 6.4390106,63.51619 6.7791383,59.675095 7.9554573,52.125659 9.0530528,46.739665 10.150648,41.353672 12.132856,34.495438 13.457959,31.499146 c 1.60621,-3.631926 3.514703,-6.121761 5.725659,-7.469737 1.82401,-1.112063 5.033466,-2.023615 7.132123,-2.025671 2.098658,-0.0021 4.669567,0.453216 5.713132,1.011714 1.043564,0.558499 5.08326,4.829764 8.977102,9.491701 4.098066,4.906446 8.114552,8.735977 9.536868,9.092956 1.351436,0.339189 3.500158,0.35493 4.774937,0.03498 1.27478,-0.319949 4.130033,-2.412094 6.345008,-4.649212 2.214974,-2.237117 5.981173,-7.536624 8.369331,-11.776682 2.388157,-4.240058 5.856332,-10.04107 7.707056,-12.891138 1.850723,-2.8500686 5.029023,-6.1757143 7.062888,-7.390324 2.084133,-1.244629 5.523815,-2.2562449 7.881829,-2.3180577 3.356718,-0.087993 4.793227,0.4740202 7.265948,2.8426948 1.69513,1.6238042 3.57788,4.7738039 4.18388,6.9999999 0.63671,2.33902 0.85682,7.285916 0.52141,11.719005 -0.31922,4.219258 -1.76627,12.319258 -3.21566,18 C 99.25267,50.742279 98.911257,53.776347 99.433273,60 c 0.345989,4.125 0.880927,9.824785 1.188757,12.666189 0.4717,4.353944 0.26844,5.322061 -1.292773,6.157598 -1.363896,0.729935 -3.216161,0.414935 -7.023087,-1.19436 z"
       id="path1" />
  </g>
</svg>
